<svg xmlns="http://www.w3.org/2000/svg" xmlns:xlink="http://www.w3.org/1999/xlink" width="500" zoomAndPan="magnify" viewBox="0 0 375 374.999991" height="500" preserveAspectRatio="xMidYMid meet" version="1.0"><defs><g/><clipPath id="id1"><path d="M 138.328125 116 L 236.578125 116 L 236.578125 205.214844 L 138.328125 205.214844 Z M 138.328125 116 " clip-rule="nonzero"/></clipPath></defs><g clip-path="url(#id1)"><path fill="#31b3cd" d="M 210.847656 125.386719 L 189.792969 125.386719 L 189.792969 118.347656 C 189.792969 118.035156 189.734375 117.738281 189.613281 117.449219 C 189.496094 117.164062 189.328125 116.910156 189.109375 116.6875 C 188.886719 116.46875 188.636719 116.296875 188.347656 116.179688 C 188.0625 116.058594 187.765625 116 187.453125 116 C 187.144531 116 186.84375 116.058594 186.558594 116.179688 C 186.273438 116.296875 186.019531 116.46875 185.800781 116.6875 C 185.582031 116.910156 185.410156 117.164062 185.292969 117.449219 C 185.175781 117.738281 185.113281 118.035156 185.113281 118.347656 L 185.113281 125.386719 L 164.0625 125.386719 C 163.292969 125.390625 162.53125 125.464844 161.78125 125.617188 C 161.027344 125.765625 160.296875 125.988281 159.585938 126.285156 C 158.878906 126.578125 158.203125 126.941406 157.566406 127.367188 C 156.925781 127.796875 156.335938 128.285156 155.792969 128.828125 C 155.25 129.371094 154.765625 129.964844 154.339844 130.605469 C 153.914062 131.246094 153.550781 131.921875 153.257812 132.632812 C 152.964844 133.34375 152.742188 134.078125 152.589844 134.832031 C 152.441406 135.589844 152.363281 136.351562 152.363281 137.121094 L 152.363281 179.363281 C 152.363281 180.132812 152.441406 180.898438 152.589844 181.652344 C 152.742188 182.40625 152.964844 183.140625 153.257812 183.851562 C 153.550781 184.5625 153.914062 185.242188 154.339844 185.878906 C 154.765625 186.519531 155.25 187.113281 155.792969 187.65625 C 156.335938 188.203125 156.925781 188.6875 157.566406 189.117188 C 158.203125 189.546875 158.878906 189.90625 159.585938 190.203125 C 160.296875 190.496094 161.027344 190.71875 161.78125 190.871094 C 162.53125 191.023438 163.292969 191.097656 164.0625 191.097656 L 176.84375 191.097656 L 185.507812 204.132812 C 185.613281 204.292969 185.738281 204.441406 185.882812 204.570312 C 186.023438 204.699219 186.179688 204.808594 186.351562 204.902344 C 186.519531 204.992188 186.699219 205.0625 186.886719 205.109375 C 187.070312 205.15625 187.261719 205.179688 187.453125 205.179688 C 187.644531 205.179688 187.835938 205.15625 188.023438 205.109375 C 188.210938 205.0625 188.386719 204.992188 188.558594 204.902344 C 188.726562 204.808594 188.882812 204.699219 189.027344 204.570312 C 189.167969 204.441406 189.292969 204.292969 189.398438 204.132812 L 198.0625 191.097656 L 210.847656 191.097656 C 211.613281 191.097656 212.375 191.023438 213.128906 190.871094 C 213.878906 190.71875 214.613281 190.496094 215.320312 190.203125 C 216.03125 189.90625 216.703125 189.546875 217.34375 189.117188 C 217.980469 188.6875 218.570312 188.203125 219.113281 187.65625 C 219.65625 187.113281 220.140625 186.519531 220.570312 185.878906 C 220.996094 185.242188 221.355469 184.5625 221.648438 183.851562 C 221.945312 183.140625 222.167969 182.40625 222.316406 181.652344 C 222.46875 180.898438 222.542969 180.132812 222.542969 179.363281 L 222.542969 137.121094 C 222.542969 136.351562 222.46875 135.589844 222.316406 134.832031 C 222.167969 134.078125 221.945312 133.34375 221.648438 132.632812 C 221.355469 131.921875 220.996094 131.246094 220.570312 130.605469 C 220.140625 129.964844 219.65625 129.371094 219.113281 128.828125 C 218.570312 128.285156 217.980469 127.796875 217.34375 127.367188 C 216.703125 126.941406 216.03125 126.578125 215.320312 126.285156 C 214.613281 125.988281 213.878906 125.765625 213.128906 125.617188 C 212.375 125.464844 211.613281 125.390625 210.847656 125.386719 Z M 217.863281 179.363281 C 217.863281 179.828125 217.820312 180.285156 217.726562 180.738281 C 217.636719 181.191406 217.503906 181.628906 217.328125 182.058594 C 217.152344 182.484375 216.933594 182.890625 216.679688 183.273438 C 216.421875 183.65625 216.132812 184.011719 215.808594 184.339844 C 215.480469 184.667969 215.125 184.957031 214.742188 185.214844 C 214.359375 185.472656 213.957031 185.691406 213.53125 185.867188 C 213.105469 186.042969 212.667969 186.175781 212.214844 186.269531 C 211.761719 186.359375 211.308594 186.402344 210.847656 186.40625 L 196.8125 186.40625 C 196.421875 186.40625 196.050781 186.496094 195.707031 186.683594 C 195.363281 186.867188 195.082031 187.125 194.863281 187.449219 L 187.453125 198.601562 L 180.042969 187.449219 C 179.824219 187.125 179.542969 186.867188 179.199219 186.683594 C 178.855469 186.496094 178.488281 186.40625 178.097656 186.40625 L 164.0625 186.40625 C 163.601562 186.402344 163.144531 186.359375 162.691406 186.269531 C 162.242188 186.175781 161.800781 186.042969 161.375 185.867188 C 160.949219 185.691406 160.546875 185.472656 160.164062 185.214844 C 159.78125 184.957031 159.425781 184.667969 159.101562 184.339844 C 158.773438 184.011719 158.484375 183.65625 158.226562 183.273438 C 157.972656 182.890625 157.753906 182.484375 157.578125 182.058594 C 157.402344 181.628906 157.269531 181.191406 157.179688 180.738281 C 157.089844 180.285156 157.042969 179.828125 157.042969 179.363281 L 157.042969 172.324219 L 217.863281 172.324219 Z M 217.863281 167.628906 L 157.042969 167.628906 L 157.042969 137.121094 C 157.042969 136.660156 157.089844 136.203125 157.179688 135.75 C 157.269531 135.296875 157.402344 134.855469 157.578125 134.429688 C 157.753906 134.003906 157.972656 133.597656 158.226562 133.210938 C 158.484375 132.828125 158.773438 132.472656 159.101562 132.144531 C 159.425781 131.820312 159.78125 131.527344 160.164062 131.269531 C 160.546875 131.015625 160.949219 130.796875 161.375 130.621094 C 161.800781 130.441406 162.242188 130.308594 162.691406 130.21875 C 163.144531 130.128906 163.601562 130.082031 164.0625 130.082031 L 210.847656 130.082031 C 211.308594 130.082031 211.761719 130.128906 212.214844 130.21875 C 212.667969 130.308594 213.105469 130.441406 213.53125 130.621094 C 213.957031 130.796875 214.359375 131.015625 214.742188 131.269531 C 215.125 131.527344 215.480469 131.820312 215.808594 132.144531 C 216.132812 132.472656 216.421875 132.828125 216.679688 133.210938 C 216.933594 133.597656 217.152344 134.003906 217.328125 134.429688 C 217.503906 134.855469 217.636719 135.296875 217.726562 135.75 C 217.820312 136.203125 217.863281 136.660156 217.863281 137.121094 Z M 178.097656 151.203125 C 178.097656 151.511719 178.066406 151.816406 178.007812 152.117188 C 177.945312 152.421875 177.859375 152.714844 177.742188 153 C 177.621094 153.285156 177.480469 153.554688 177.308594 153.808594 C 177.136719 154.066406 176.945312 154.304688 176.726562 154.523438 C 176.507812 154.738281 176.273438 154.933594 176.015625 155.105469 C 175.761719 155.277344 175.492188 155.421875 175.207031 155.539062 C 174.925781 155.65625 174.632812 155.746094 174.332031 155.804688 C 174.03125 155.867188 173.726562 155.894531 173.417969 155.894531 C 173.109375 155.894531 172.804688 155.867188 172.503906 155.804688 C 172.203125 155.746094 171.910156 155.65625 171.628906 155.539062 C 171.34375 155.421875 171.074219 155.277344 170.820312 155.105469 C 170.5625 154.933594 170.328125 154.738281 170.109375 154.523438 C 169.894531 154.304688 169.699219 154.066406 169.527344 153.808594 C 169.355469 153.554688 169.214844 153.285156 169.09375 153 C 168.976562 152.714844 168.890625 152.421875 168.828125 152.117188 C 168.769531 151.816406 168.738281 151.511719 168.738281 151.203125 C 168.738281 150.894531 168.769531 150.589844 168.828125 150.285156 C 168.890625 149.984375 168.976562 149.691406 169.09375 149.40625 C 169.214844 149.121094 169.355469 148.851562 169.527344 148.59375 C 169.699219 148.339844 169.894531 148.101562 170.109375 147.882812 C 170.328125 147.664062 170.5625 147.472656 170.820312 147.300781 C 171.074219 147.128906 171.34375 146.984375 171.628906 146.867188 C 171.910156 146.75 172.203125 146.660156 172.503906 146.597656 C 172.804688 146.539062 173.109375 146.507812 173.417969 146.507812 C 173.726562 146.507812 174.03125 146.539062 174.332031 146.597656 C 174.632812 146.660156 174.925781 146.75 175.207031 146.867188 C 175.492188 146.984375 175.761719 147.128906 176.015625 147.300781 C 176.273438 147.472656 176.507812 147.664062 176.726562 147.882812 C 176.945312 148.101562 177.136719 148.339844 177.308594 148.59375 C 177.480469 148.851562 177.621094 149.121094 177.742188 149.40625 C 177.859375 149.691406 177.945312 149.984375 178.007812 150.285156 C 178.066406 150.589844 178.097656 150.894531 178.097656 151.203125 Z M 206.167969 151.203125 C 206.167969 151.511719 206.136719 151.816406 206.078125 152.117188 C 206.019531 152.421875 205.929688 152.714844 205.8125 153 C 205.695312 153.285156 205.550781 153.554688 205.378906 153.808594 C 205.207031 154.066406 205.015625 154.304688 204.796875 154.523438 C 204.582031 154.738281 204.34375 154.933594 204.089844 155.105469 C 203.832031 155.277344 203.5625 155.421875 203.28125 155.539062 C 202.996094 155.65625 202.703125 155.746094 202.402344 155.804688 C 202.101562 155.867188 201.796875 155.894531 201.488281 155.894531 C 201.183594 155.894531 200.878906 155.867188 200.578125 155.804688 C 200.277344 155.746094 199.984375 155.65625 199.699219 155.539062 C 199.414062 155.421875 199.144531 155.277344 198.890625 155.105469 C 198.636719 154.933594 198.398438 154.738281 198.179688 154.523438 C 197.964844 154.304688 197.769531 154.066406 197.597656 153.808594 C 197.429688 153.554688 197.285156 153.285156 197.167969 153 C 197.050781 152.714844 196.960938 152.421875 196.902344 152.117188 C 196.839844 151.816406 196.8125 151.511719 196.8125 151.203125 C 196.8125 150.894531 196.839844 150.589844 196.902344 150.285156 C 196.960938 149.984375 197.050781 149.691406 197.167969 149.40625 C 197.285156 149.121094 197.429688 148.851562 197.597656 148.59375 C 197.769531 148.339844 197.964844 148.101562 198.179688 147.882812 C 198.398438 147.664062 198.636719 147.472656 198.890625 147.300781 C 199.144531 147.128906 199.414062 146.984375 199.699219 146.867188 C 199.984375 146.75 200.277344 146.660156 200.578125 146.597656 C 200.878906 146.539062 201.183594 146.507812 201.488281 146.507812 C 201.796875 146.507812 202.101562 146.539062 202.402344 146.597656 C 202.703125 146.660156 202.996094 146.75 203.28125 146.867188 C 203.5625 146.984375 203.832031 147.128906 204.089844 147.300781 C 204.34375 147.472656 204.582031 147.664062 204.796875 147.882812 C 205.015625 148.101562 205.207031 148.339844 205.378906 148.59375 C 205.550781 148.851562 205.695312 149.121094 205.8125 149.40625 C 205.929688 149.691406 206.019531 149.984375 206.078125 150.285156 C 206.136719 150.589844 206.167969 150.894531 206.167969 151.203125 Z M 143.007812 141.816406 L 143.007812 160.589844 C 143.007812 160.902344 142.949219 161.199219 142.828125 161.488281 C 142.710938 161.777344 142.542969 162.027344 142.320312 162.25 C 142.101562 162.46875 141.851562 162.640625 141.5625 162.757812 C 141.277344 162.878906 140.976562 162.9375 140.667969 162.9375 C 140.359375 162.9375 140.058594 162.878906 139.773438 162.757812 C 139.484375 162.640625 139.234375 162.46875 139.015625 162.25 C 138.792969 162.027344 138.625 161.777344 138.507812 161.488281 C 138.386719 161.199219 138.328125 160.902344 138.328125 160.589844 L 138.328125 141.816406 C 138.328125 141.503906 138.386719 141.203125 138.507812 140.917969 C 138.625 140.628906 138.792969 140.375 139.015625 140.15625 C 139.234375 139.9375 139.484375 139.765625 139.773438 139.648438 C 140.058594 139.527344 140.359375 139.46875 140.667969 139.46875 C 140.976562 139.46875 141.277344 139.527344 141.5625 139.648438 C 141.851562 139.765625 142.101562 139.9375 142.320312 140.15625 C 142.542969 140.375 142.710938 140.628906 142.828125 140.917969 C 142.949219 141.203125 143.007812 141.503906 143.007812 141.816406 Z M 236.578125 141.816406 L 236.578125 160.589844 C 236.578125 160.902344 236.519531 161.199219 236.402344 161.488281 C 236.28125 161.777344 236.113281 162.027344 235.894531 162.25 C 235.675781 162.46875 235.421875 162.640625 235.132812 162.757812 C 234.847656 162.878906 234.550781 162.9375 234.238281 162.9375 C 233.929688 162.9375 233.632812 162.878906 233.34375 162.757812 C 233.058594 162.640625 232.804688 162.46875 232.585938 162.25 C 232.367188 162.027344 232.195312 161.777344 232.078125 161.488281 C 231.960938 161.199219 231.898438 160.902344 231.898438 160.589844 L 231.898438 141.816406 C 231.898438 141.503906 231.960938 141.203125 232.078125 140.917969 C 232.195312 140.628906 232.367188 140.375 232.585938 140.15625 C 232.804688 139.9375 233.058594 139.765625 233.34375 139.648438 C 233.632812 139.527344 233.929688 139.46875 234.238281 139.46875 C 234.550781 139.46875 234.847656 139.527344 235.132812 139.648438 C 235.421875 139.765625 235.675781 139.9375 235.894531 140.15625 C 236.113281 140.375 236.28125 140.628906 236.402344 140.917969 C 236.519531 141.203125 236.578125 141.503906 236.578125 141.816406 Z M 236.578125 141.816406 " fill-opacity="1" fill-rule="nonzero"/></g><g fill="#022179" fill-opacity="1"><g transform="translate(55.282072, 228.716791)"><g><path d="M 10.859375 -6.546875 L 12.8125 -6.546875 L 12.8125 -1.640625 C 12.132812 -1.117188 11.328125 -0.695312 10.390625 -0.375 C 9.460938 -0.0625 8.546875 0.09375 7.640625 0.09375 C 5.679688 0.09375 4.023438 -0.550781 2.671875 -1.84375 C 1.316406 -3.144531 0.640625 -4.742188 0.640625 -6.640625 C 0.640625 -8.546875 1.320312 -10.144531 2.6875 -11.4375 C 4.0625 -12.726562 5.757812 -13.375 7.78125 -13.375 C 8.71875 -13.375 9.640625 -13.203125 10.546875 -12.859375 C 11.453125 -12.523438 12.234375 -12.070312 12.890625 -11.5 L 11.625 -9.84375 C 10.53125 -10.863281 9.25 -11.375 7.78125 -11.375 C 6.425781 -11.375 5.273438 -10.914062 4.328125 -10 C 3.390625 -9.09375 2.921875 -7.976562 2.921875 -6.65625 C 2.921875 -5.320312 3.394531 -4.195312 4.34375 -3.28125 C 5.289062 -2.375 6.441406 -1.921875 7.796875 -1.921875 C 8.828125 -1.921875 9.847656 -2.222656 10.859375 -2.828125 Z M 10.859375 -6.546875 "/></g></g></g><g fill="#022179" fill-opacity="1"><g transform="translate(70.498101, 228.716791)"><g><path d="M 10.34375 -3 L 3.625 -3 L 2.359375 0 L 0.015625 0 L 5.890625 -13.3125 L 8.203125 -13.3125 L 14.015625 0 L 11.625 0 Z M 9.484375 -5 L 6.984375 -10.921875 L 4.46875 -5 Z M 9.484375 -5 "/></g></g></g><g fill="#022179" fill-opacity="1"><g transform="translate(85.50491, 228.716791)"><g><path d="M 10.1875 0 L 7.765625 -4.03125 C 7.628906 -4.019531 7.425781 -4.015625 7.15625 -4.015625 L 4 -4.015625 L 4 0 L 1.75 0 L 1.75 -13.3125 L 7.15625 -13.3125 C 8.851562 -13.3125 10.171875 -12.914062 11.109375 -12.125 C 12.046875 -11.332031 12.515625 -10.210938 12.515625 -8.765625 C 12.515625 -7.703125 12.273438 -6.800781 11.796875 -6.0625 C 11.328125 -5.332031 10.644531 -4.796875 9.75 -4.453125 L 12.734375 0 Z M 4 -6.03125 L 7.15625 -6.03125 C 9.300781 -6.03125 10.375 -6.921875 10.375 -8.703125 C 10.375 -10.429688 9.300781 -11.296875 7.15625 -11.296875 L 4 -11.296875 Z M 4 -6.03125 "/></g></g></g><g fill="#022179" fill-opacity="1"><g transform="translate(100.226428, 228.716791)"><g><path d="M 2.671875 -11.4375 C 4.035156 -12.726562 5.710938 -13.375 7.703125 -13.375 C 9.691406 -13.375 11.363281 -12.726562 12.71875 -11.4375 C 14.070312 -10.144531 14.75 -8.546875 14.75 -6.640625 C 14.75 -4.742188 14.070312 -3.144531 12.71875 -1.84375 C 11.363281 -0.550781 9.691406 0.09375 7.703125 0.09375 C 5.710938 0.09375 4.035156 -0.550781 2.671875 -1.84375 C 1.316406 -3.144531 0.640625 -4.742188 0.640625 -6.640625 C 0.640625 -8.546875 1.316406 -10.144531 2.671875 -11.4375 Z M 7.71875 -11.359375 C 6.40625 -11.359375 5.273438 -10.90625 4.328125 -10 C 3.390625 -9.09375 2.921875 -7.976562 2.921875 -6.65625 C 2.921875 -5.332031 3.394531 -4.210938 4.34375 -3.296875 C 5.289062 -2.378906 6.414062 -1.921875 7.71875 -1.921875 C 9.019531 -1.921875 10.132812 -2.378906 11.0625 -3.296875 C 11.988281 -4.210938 12.453125 -5.332031 12.453125 -6.65625 C 12.453125 -7.976562 11.988281 -9.09375 11.0625 -10 C 10.132812 -10.90625 9.019531 -11.359375 7.71875 -11.359375 Z M 7.71875 -11.359375 "/></g></g></g><g fill="#022179" fill-opacity="1"><g transform="translate(116.602648, 228.716791)"><g><path d="M 10.84375 -11.296875 L 6.625 -11.296875 L 6.625 0 L 4.375 0 L 4.375 -11.296875 L 0.171875 -11.296875 L 0.171875 -13.3125 L 10.84375 -13.3125 Z M 10.84375 -11.296875 "/></g></g></g><g fill="#022179" fill-opacity="1"><g transform="translate(128.585355, 228.716791)"><g><path d="M 10.34375 -3 L 3.625 -3 L 2.359375 0 L 0.015625 0 L 5.890625 -13.3125 L 8.203125 -13.3125 L 14.015625 0 L 11.625 0 Z M 9.484375 -5 L 6.984375 -10.921875 L 4.46875 -5 Z M 9.484375 -5 "/></g></g></g><g fill="#022179" fill-opacity="1"><g transform="translate(143.592164, 228.716791)"><g/></g></g><g fill="#022179" fill-opacity="1"><g transform="translate(149.469597, 228.716791)"><g><path d="M 1.75 -13.3125 L 7.203125 -13.3125 C 9.191406 -13.3125 10.835938 -12.679688 12.140625 -11.421875 C 13.441406 -10.171875 14.09375 -8.582031 14.09375 -6.65625 C 14.09375 -4.726562 13.4375 -3.132812 12.125 -1.875 C 10.820312 -0.625 9.164062 0 7.15625 0 L 1.75 0 Z M 4 -11.296875 L 4 -2.015625 L 7.265625 -2.015625 C 8.566406 -2.015625 9.648438 -2.445312 10.515625 -3.3125 C 11.390625 -4.1875 11.828125 -5.296875 11.828125 -6.640625 C 11.828125 -7.984375 11.378906 -9.09375 10.484375 -9.96875 C 9.585938 -10.851562 8.484375 -11.296875 7.171875 -11.296875 Z M 4 -11.296875 "/></g></g></g><g fill="#022179" fill-opacity="1"><g transform="translate(165.180137, 228.716791)"><g><path d="M 11.25 -11.296875 L 4 -11.296875 L 4 -7.703125 L 10.5 -7.703125 L 10.5 -5.6875 L 4 -5.6875 L 4 -2.015625 L 11.484375 -2.015625 L 11.484375 0 L 1.75 0 L 1.75 -13.3125 L 11.25 -13.3125 Z M 11.25 -11.296875 "/></g></g></g><g fill="#022179" fill-opacity="1"><g transform="translate(178.627344, 228.716791)"><g/></g></g><g fill="#022179" fill-opacity="1"><g transform="translate(184.504778, 228.716791)"><g><path d="M 1.75 -13.3125 L 7.0625 -13.3125 C 8.726562 -13.3125 10.019531 -12.914062 10.9375 -12.125 C 11.863281 -11.332031 12.328125 -10.210938 12.328125 -8.765625 C 12.328125 -7.253906 11.863281 -6.082031 10.9375 -5.25 C 10.019531 -4.425781 8.726562 -4.015625 7.0625 -4.015625 L 4 -4.015625 L 4 0 L 1.75 0 Z M 4 -11.296875 L 4 -6.03125 L 6.953125 -6.03125 C 9.097656 -6.03125 10.171875 -6.921875 10.171875 -8.703125 C 10.171875 -10.429688 9.097656 -11.296875 6.953125 -11.296875 Z M 4 -11.296875 "/></g></g></g><g fill="#022179" fill-opacity="1"><g transform="translate(198.275315, 228.716791)"><g><path d="M 10.1875 0 L 7.765625 -4.03125 C 7.628906 -4.019531 7.425781 -4.015625 7.15625 -4.015625 L 4 -4.015625 L 4 0 L 1.75 0 L 1.75 -13.3125 L 7.15625 -13.3125 C 8.851562 -13.3125 10.171875 -12.914062 11.109375 -12.125 C 12.046875 -11.332031 12.515625 -10.210938 12.515625 -8.765625 C 12.515625 -7.703125 12.273438 -6.800781 11.796875 -6.0625 C 11.328125 -5.332031 10.644531 -4.796875 9.75 -4.453125 L 12.734375 0 Z M 4 -6.03125 L 7.15625 -6.03125 C 9.300781 -6.03125 10.375 -6.921875 10.375 -8.703125 C 10.375 -10.429688 9.300781 -11.296875 7.15625 -11.296875 L 4 -11.296875 Z M 4 -6.03125 "/></g></g></g><g fill="#022179" fill-opacity="1"><g transform="translate(212.996834, 228.716791)"><g><path d="M 2.671875 -11.4375 C 4.035156 -12.726562 5.710938 -13.375 7.703125 -13.375 C 9.691406 -13.375 11.363281 -12.726562 12.71875 -11.4375 C 14.070312 -10.144531 14.75 -8.546875 14.75 -6.640625 C 14.75 -4.742188 14.070312 -3.144531 12.71875 -1.84375 C 11.363281 -0.550781 9.691406 0.09375 7.703125 0.09375 C 5.710938 0.09375 4.035156 -0.550781 2.671875 -1.84375 C 1.316406 -3.144531 0.640625 -4.742188 0.640625 -6.640625 C 0.640625 -8.546875 1.316406 -10.144531 2.671875 -11.4375 Z M 7.71875 -11.359375 C 6.40625 -11.359375 5.273438 -10.90625 4.328125 -10 C 3.390625 -9.09375 2.921875 -7.976562 2.921875 -6.65625 C 2.921875 -5.332031 3.394531 -4.210938 4.34375 -3.296875 C 5.289062 -2.378906 6.414062 -1.921875 7.71875 -1.921875 C 9.019531 -1.921875 10.132812 -2.378906 11.0625 -3.296875 C 11.988281 -4.210938 12.453125 -5.332031 12.453125 -6.65625 C 12.453125 -7.976562 11.988281 -9.09375 11.0625 -10 C 10.132812 -10.90625 9.019531 -11.359375 7.71875 -11.359375 Z M 7.71875 -11.359375 "/></g></g></g><g fill="#022179" fill-opacity="1"><g transform="translate(229.373054, 228.716791)"><g><path d="M 10.859375 -6.546875 L 12.8125 -6.546875 L 12.8125 -1.640625 C 12.132812 -1.117188 11.328125 -0.695312 10.390625 -0.375 C 9.460938 -0.0625 8.546875 0.09375 7.640625 0.09375 C 5.679688 0.09375 4.023438 -0.550781 2.671875 -1.84375 C 1.316406 -3.144531 0.640625 -4.742188 0.640625 -6.640625 C 0.640625 -8.546875 1.320312 -10.144531 2.6875 -11.4375 C 4.0625 -12.726562 5.757812 -13.375 7.78125 -13.375 C 8.71875 -13.375 9.640625 -13.203125 10.546875 -12.859375 C 11.453125 -12.523438 12.234375 -12.070312 12.890625 -11.5 L 11.625 -9.84375 C 10.53125 -10.863281 9.25 -11.375 7.78125 -11.375 C 6.425781 -11.375 5.273438 -10.914062 4.328125 -10 C 3.390625 -9.09375 2.921875 -7.976562 2.921875 -6.65625 C 2.921875 -5.320312 3.394531 -4.195312 4.34375 -3.28125 C 5.289062 -2.375 6.441406 -1.921875 7.796875 -1.921875 C 8.828125 -1.921875 9.847656 -2.222656 10.859375 -2.828125 Z M 10.859375 -6.546875 "/></g></g></g><g fill="#022179" fill-opacity="1"><g transform="translate(244.589083, 228.716791)"><g><path d="M 10.1875 0 L 7.765625 -4.03125 C 7.628906 -4.019531 7.425781 -4.015625 7.15625 -4.015625 L 4 -4.015625 L 4 0 L 1.75 0 L 1.75 -13.3125 L 7.15625 -13.3125 C 8.851562 -13.3125 10.171875 -12.914062 11.109375 -12.125 C 12.046875 -11.332031 12.515625 -10.210938 12.515625 -8.765625 C 12.515625 -7.703125 12.273438 -6.800781 11.796875 -6.0625 C 11.328125 -5.332031 10.644531 -4.796875 9.75 -4.453125 L 12.734375 0 Z M 4 -6.03125 L 7.15625 -6.03125 C 9.300781 -6.03125 10.375 -6.921875 10.375 -8.703125 C 10.375 -10.429688 9.300781 -11.296875 7.15625 -11.296875 L 4 -11.296875 Z M 4 -6.03125 "/></g></g></g><g fill="#022179" fill-opacity="1"><g transform="translate(259.310602, 228.716791)"><g><path d="M 10.34375 -3 L 3.625 -3 L 2.359375 0 L 0.015625 0 L 5.890625 -13.3125 L 8.203125 -13.3125 L 14.015625 0 L 11.625 0 Z M 9.484375 -5 L 6.984375 -10.921875 L 4.46875 -5 Z M 9.484375 -5 "/></g></g></g><g fill="#022179" fill-opacity="1"><g transform="translate(274.317399, 228.716791)"><g><path d="M 15.828125 0 L 13.75 0 L 13.734375 -9.9375 L 9.53125 -1.390625 L 8.0625 -1.390625 L 3.859375 -9.9375 L 3.859375 0 L 1.75 0 L 1.75 -13.3125 L 4.40625 -13.3125 L 8.796875 -4.46875 L 13.171875 -13.3125 L 15.828125 -13.3125 Z M 15.828125 0 "/></g></g></g><g fill="#022179" fill-opacity="1"><g transform="translate(292.880859, 228.716791)"><g><path d="M 10.34375 -3 L 3.625 -3 L 2.359375 0 L 0.015625 0 L 5.890625 -13.3125 L 8.203125 -13.3125 L 14.015625 0 L 11.625 0 Z M 9.484375 -5 L 6.984375 -10.921875 L 4.46875 -5 Z M 9.484375 -5 "/></g></g></g><g fill="#022179" fill-opacity="1"><g transform="translate(307.887678, 228.716791)"><g><path d="M 6.125 -13.40625 C 7.84375 -13.40625 9.394531 -12.945312 10.78125 -12.03125 L 9.84375 -10.0625 C 8.488281 -10.882812 7.191406 -11.296875 5.953125 -11.296875 C 5.273438 -11.296875 4.742188 -11.175781 4.359375 -10.9375 C 3.972656 -10.695312 3.78125 -10.351562 3.78125 -9.90625 C 3.78125 -9.457031 3.957031 -9.078125 4.3125 -8.765625 C 4.664062 -8.460938 5.109375 -8.238281 5.640625 -8.09375 C 6.179688 -7.945312 6.757812 -7.757812 7.375 -7.53125 C 8 -7.3125 8.578125 -7.078125 9.109375 -6.828125 C 9.640625 -6.585938 10.078125 -6.203125 10.421875 -5.671875 C 10.773438 -5.148438 10.953125 -4.515625 10.953125 -3.765625 C 10.953125 -2.597656 10.484375 -1.664062 9.546875 -0.96875 C 8.617188 -0.269531 7.414062 0.078125 5.9375 0.078125 C 4.914062 0.078125 3.929688 -0.109375 2.984375 -0.484375 C 2.035156 -0.867188 1.207031 -1.382812 0.5 -2.03125 L 1.46875 -3.96875 C 2.132812 -3.351562 2.867188 -2.875 3.671875 -2.53125 C 4.484375 -2.195312 5.25 -2.03125 5.96875 -2.03125 C 6.757812 -2.03125 7.375 -2.171875 7.8125 -2.453125 C 8.25 -2.742188 8.46875 -3.144531 8.46875 -3.65625 C 8.46875 -4.101562 8.285156 -4.484375 7.921875 -4.796875 C 7.566406 -5.109375 7.125 -5.335938 6.59375 -5.484375 C 6.0625 -5.628906 5.484375 -5.804688 4.859375 -6.015625 C 4.242188 -6.222656 3.671875 -6.441406 3.140625 -6.671875 C 2.609375 -6.910156 2.164062 -7.289062 1.8125 -7.8125 C 1.457031 -8.332031 1.28125 -8.960938 1.28125 -9.703125 C 1.28125 -10.828125 1.722656 -11.722656 2.609375 -12.390625 C 3.492188 -13.066406 4.664062 -13.40625 6.125 -13.40625 Z M 6.125 -13.40625 "/></g></g></g><g fill="#0d94af" fill-opacity="1"><g transform="translate(127.640803, 256.549584)"><g><path d="M 7.203125 -7.515625 L 4.40625 -7.515625 L 4.40625 0 L 2.90625 0 L 2.90625 -7.515625 L 0.109375 -7.515625 L 0.109375 -8.84375 L 7.203125 -8.84375 Z M 7.203125 -7.515625 "/></g></g></g><g fill="#0d94af" fill-opacity="1"><g transform="translate(138.350875, 256.549584)"><g><path d="M 7.484375 -7.515625 L 2.65625 -7.515625 L 2.65625 -5.125 L 6.984375 -5.125 L 6.984375 -3.78125 L 2.65625 -3.78125 L 2.65625 -1.34375 L 7.640625 -1.34375 L 7.640625 0 L 1.15625 0 L 1.15625 -8.84375 L 7.484375 -8.84375 Z M 7.484375 -7.515625 "/></g></g></g><g fill="#0d94af" fill-opacity="1"><g transform="translate(150.034564, 256.549584)"><g><path d="M 5.078125 -8.890625 C 5.703125 -8.890625 6.3125 -8.769531 6.90625 -8.53125 C 7.5 -8.289062 8.007812 -7.953125 8.4375 -7.515625 L 7.578125 -6.4375 C 7.253906 -6.78125 6.875 -7.050781 6.4375 -7.25 C 6 -7.457031 5.554688 -7.5625 5.109375 -7.5625 C 4.222656 -7.5625 3.472656 -7.257812 2.859375 -6.65625 C 2.253906 -6.050781 1.953125 -5.316406 1.953125 -4.453125 C 1.953125 -3.578125 2.253906 -2.835938 2.859375 -2.234375 C 3.472656 -1.628906 4.222656 -1.328125 5.109375 -1.328125 C 6.023438 -1.328125 6.847656 -1.675781 7.578125 -2.375 L 8.453125 -1.390625 C 8.003906 -0.941406 7.472656 -0.585938 6.859375 -0.328125 C 6.253906 -0.0664062 5.644531 0.0625 5.03125 0.0625 C 3.726562 0.0625 2.632812 -0.367188 1.75 -1.234375 C 0.875 -2.097656 0.4375 -3.164062 0.4375 -4.4375 C 0.4375 -5.695312 0.882812 -6.753906 1.78125 -7.609375 C 2.675781 -8.460938 3.773438 -8.890625 5.078125 -8.890625 Z M 5.078125 -8.890625 "/></g></g></g><g fill="#0d94af" fill-opacity="1"><g transform="translate(162.23668, 256.549584)"><g><path d="M 8.828125 0 L 7.34375 0 L 7.34375 -3.671875 L 2.65625 -3.671875 L 2.65625 0 L 1.15625 0 L 1.15625 -8.84375 L 2.65625 -8.84375 L 2.65625 -5 L 7.34375 -5 L 7.34375 -8.84375 L 8.828125 -8.84375 Z M 8.828125 0 "/></g></g></g><g fill="#0d94af" fill-opacity="1"><g transform="translate(175.627371, 256.549584)"><g><path d="M 8.828125 0 L 7.375 0 L 2.65625 -6.34375 L 2.65625 0 L 1.15625 0 L 1.15625 -8.84375 L 2.625 -8.84375 L 7.375 -2.484375 L 7.375 -8.84375 L 8.828125 -8.84375 Z M 8.828125 0 "/></g></g></g><g fill="#0d94af" fill-opacity="1"><g transform="translate(189.030708, 256.549584)"><g><path d="M 1.78125 -7.609375 C 2.6875 -8.460938 3.800781 -8.890625 5.125 -8.890625 C 6.445312 -8.890625 7.554688 -8.460938 8.453125 -7.609375 C 9.359375 -6.753906 9.8125 -5.691406 9.8125 -4.421875 C 9.8125 -3.160156 9.359375 -2.097656 8.453125 -1.234375 C 7.554688 -0.367188 6.445312 0.0625 5.125 0.0625 C 3.800781 0.0625 2.6875 -0.367188 1.78125 -1.234375 C 0.882812 -2.097656 0.4375 -3.160156 0.4375 -4.421875 C 0.4375 -5.691406 0.882812 -6.753906 1.78125 -7.609375 Z M 5.125 -7.546875 C 4.25 -7.546875 3.5 -7.242188 2.875 -6.640625 C 2.257812 -6.035156 1.953125 -5.296875 1.953125 -4.421875 C 1.953125 -3.546875 2.265625 -2.800781 2.890625 -2.1875 C 3.515625 -1.582031 4.257812 -1.28125 5.125 -1.28125 C 6 -1.28125 6.742188 -1.582031 7.359375 -2.1875 C 7.972656 -2.800781 8.28125 -3.546875 8.28125 -4.421875 C 8.28125 -5.296875 7.972656 -6.035156 7.359375 -6.640625 C 6.742188 -7.242188 6 -7.546875 5.125 -7.546875 Z M 5.125 -7.546875 "/></g></g></g><g fill="#0d94af" fill-opacity="1"><g transform="translate(202.661644, 256.549584)"><g><path d="M 2.65625 -1.359375 L 6.484375 -1.359375 L 6.484375 0 L 1.15625 0 L 1.15625 -8.84375 L 2.65625 -8.84375 Z M 2.65625 -1.359375 "/></g></g></g><g fill="#0d94af" fill-opacity="1"><g transform="translate(212.802717, 256.549584)"><g><path d="M 1.78125 -7.609375 C 2.6875 -8.460938 3.800781 -8.890625 5.125 -8.890625 C 6.445312 -8.890625 7.554688 -8.460938 8.453125 -7.609375 C 9.359375 -6.753906 9.8125 -5.691406 9.8125 -4.421875 C 9.8125 -3.160156 9.359375 -2.097656 8.453125 -1.234375 C 7.554688 -0.367188 6.445312 0.0625 5.125 0.0625 C 3.800781 0.0625 2.6875 -0.367188 1.78125 -1.234375 C 0.882812 -2.097656 0.4375 -3.160156 0.4375 -4.421875 C 0.4375 -5.691406 0.882812 -6.753906 1.78125 -7.609375 Z M 5.125 -7.546875 C 4.25 -7.546875 3.5 -7.242188 2.875 -6.640625 C 2.257812 -6.035156 1.953125 -5.296875 1.953125 -4.421875 C 1.953125 -3.546875 2.265625 -2.800781 2.890625 -2.1875 C 3.515625 -1.582031 4.257812 -1.28125 5.125 -1.28125 C 6 -1.28125 6.742188 -1.582031 7.359375 -2.1875 C 7.972656 -2.800781 8.28125 -3.546875 8.28125 -4.421875 C 8.28125 -5.296875 7.972656 -6.035156 7.359375 -6.640625 C 6.742188 -7.242188 6 -7.546875 5.125 -7.546875 Z M 5.125 -7.546875 "/></g></g></g><g fill="#0d94af" fill-opacity="1"><g transform="translate(226.433648, 256.549584)"><g><path d="M 7.21875 -4.34375 L 8.515625 -4.34375 L 8.515625 -1.09375 C 8.066406 -0.738281 7.53125 -0.457031 6.90625 -0.25 C 6.289062 -0.0390625 5.679688 0.0625 5.078125 0.0625 C 3.773438 0.0625 2.675781 -0.367188 1.78125 -1.234375 C 0.882812 -2.097656 0.4375 -3.160156 0.4375 -4.421875 C 0.4375 -5.691406 0.890625 -6.753906 1.796875 -7.609375 C 2.703125 -8.460938 3.828125 -8.890625 5.171875 -8.890625 C 5.796875 -8.890625 6.40625 -8.773438 7 -8.546875 C 7.601562 -8.328125 8.128906 -8.023438 8.578125 -7.640625 L 7.71875 -6.546875 C 7 -7.222656 6.148438 -7.5625 5.171875 -7.5625 C 4.265625 -7.5625 3.5 -7.253906 2.875 -6.640625 C 2.257812 -6.035156 1.953125 -5.296875 1.953125 -4.421875 C 1.953125 -3.535156 2.265625 -2.789062 2.890625 -2.1875 C 3.515625 -1.582031 4.28125 -1.28125 5.1875 -1.28125 C 5.863281 -1.28125 6.539062 -1.484375 7.21875 -1.890625 Z M 7.21875 -4.34375 "/></g></g></g><g fill="#0d94af" fill-opacity="1"><g transform="translate(239.29327, 256.549584)"><g><path d="M 4.796875 -2.9375 L 4.796875 0 L 3.3125 0 L 3.3125 -2.890625 L 0.015625 -8.84375 L 1.515625 -8.84375 L 4.046875 -4.53125 L 6.515625 -8.84375 L 8.046875 -8.84375 Z M 4.796875 -2.9375 "/></g></g></g></svg>